<svg xmlns="http://www.w3.org/2000/svg" viewBox="0 0 32.22 27.2"><g id="图层_2" data-name="图层 2"><g id="图层_1-2" data-name="图层 1"><path d="M11.65,18.21A8.4,8.4,0,0,1,14,12a10.09,10.09,0,0,1,2.89-2.19,11.43,11.43,0,0,1,5.89-1.28c.13,0,.15,0,.12-.16a8.65,8.65,0,0,0-1.5-3.51,10.63,10.63,0,0,0-2.66-2.65A12.88,12.88,0,0,0,16.3.92,13.22,13.22,0,0,0,12.13,0C12,0,11.77.1,11.6,0h-.09a1.43,1.43,0,0,1-.58,0V0a6.77,6.77,0,0,0-.9,0A12.17,12.17,0,0,0,5.86,1.24,11.11,11.11,0,0,0,2.3,3.92,12,12,0,0,0,1,5.74,8.34,8.34,0,0,0,.09,8.31c0,.28,0,.57-.09.85v.22a.25.25,0,0,1,0,.31v.58a.32.32,0,0,1,0,.35v.18c.07,0,0,.1.05.15,0,.26.07.52.12.77a8,8,0,0,0,1.11,2.82c.28.41.53.83.85,1.22a8,8,0,0,0,1.73,1.65.39.39,0,0,1,.19.54c-.15.42-.23.86-.37,1.28s-.3,1.08-.43,1.62a.92.92,0,0,0,0,.33.32.32,0,0,0,.37.34,1.07,1.07,0,0,0,.62-.2c1-.65,1.93-1.3,2.88-2a.34.34,0,0,1,.35-.05,12.79,12.79,0,0,0,4.3.65c.15,0,.17,0,.13-.18A6.92,6.92,0,0,1,11.65,18.21ZM15.83,5.36a1.36,1.36,0,0,1,1.4,1.41,1.36,1.36,0,0,1-1.41,1.38,1.4,1.4,0,0,1,0-2.79ZM7.05,8.15a1.4,1.4,0,1,1,0-2.79,1.4,1.4,0,0,1,0,2.79Z"/><path d="M32.18,16.85a7.07,7.07,0,0,0-.59-2.05,8.66,8.66,0,0,0-2.69-3.39A10.91,10.91,0,0,0,26.46,10a11.3,11.3,0,0,0-4.56-.78A11,11,0,0,0,16.27,11a9,9,0,0,0-2.46,2.35,7.39,7.39,0,0,0-1.45,5.14A7.32,7.32,0,0,0,14,22.6a9.31,9.31,0,0,0,2.56,2.28A11.31,11.31,0,0,0,19.19,26a11.5,11.5,0,0,0,5.68.13,14.66,14.66,0,0,0,1.74-.55.22.22,0,0,1,.22,0L29,27.13a.41.41,0,0,0,.47,0,.66.66,0,0,0,.07-.55c-.16-.68-.38-1.35-.57-2a.28.28,0,0,1,.12-.36,4.22,4.22,0,0,0,.82-.7,9.75,9.75,0,0,0,1.92-2.95,5.79,5.79,0,0,0,.4-1.69V17.08A.27.27,0,0,1,32.18,16.85Zm-13.55-1a1.4,1.4,0,0,1-1.38-1.41A1.38,1.38,0,0,1,18.63,13,1.36,1.36,0,0,1,20,14.44,1.38,1.38,0,0,1,18.63,15.84Zm7.17,0a1.4,1.4,0,1,1,1.42-1.38A1.37,1.37,0,0,1,25.8,15.83Z"/></g></g></svg>