<svg xmlns="http://www.w3.org/2000/svg" viewBox="0 0 31.37 25.28"><defs><style>.cls-1{fill:#fff;}</style></defs><g id="图层_2" data-name="图层 2"><g id="图层_1-2" data-name="图层 1"><path class="cls-1" d="M11,25.28c-.6-.11-1.2-.24-1.8-.34a15.91,15.91,0,0,1-2.35-.61A13.94,13.94,0,0,1,4,23,8.82,8.82,0,0,1,.86,20,5.69,5.69,0,0,1,0,17.32a8.84,8.84,0,0,1,.91-4.09,15,15,0,0,1,1.25-2.11,22,22,0,0,1,2-2.42A21.15,21.15,0,0,1,6.66,6.39a17.74,17.74,0,0,1,2.23-1.5A8.69,8.69,0,0,1,13.3,3.5a2.37,2.37,0,0,1,1.93.89,2.74,2.74,0,0,1,.48,1.88,5.35,5.35,0,0,1-.27,1.53c-.12.35,0,.48.36.4.57-.13,1.08-.42,1.64-.57a7.48,7.48,0,0,1,4.63-.23,2.42,2.42,0,0,1,1.42,1.84A4,4,0,0,1,23.25,11c-.33.86-.24,1,.63,1.25a6.08,6.08,0,0,1,2.25,1.34,3.67,3.67,0,0,1,1.24,2.55A4.71,4.71,0,0,1,27,18.34a8.36,8.36,0,0,1-1.95,2.75,13,13,0,0,1-1.73,1.39,14.88,14.88,0,0,1-3.54,1.78,19.83,19.83,0,0,1-4.15,1,1.52,1.52,0,0,0-.2.06Zm10.9-8.47a4.26,4.26,0,0,0,0-.54,4.83,4.83,0,0,0-1.93-3.15,8.67,8.67,0,0,0-3.26-1.54A12.89,12.89,0,0,0,13,11.19a9.86,9.86,0,0,0-1.44.1,17.16,17.16,0,0,0-2.71.63,17.58,17.58,0,0,0-2.07.95,7.88,7.88,0,0,0-2.08,1.69,5,5,0,0,0-1.18,2,4.48,4.48,0,0,0,1.94,5,9.67,9.67,0,0,0,3.42,1.48,11.76,11.76,0,0,0,3,.33,13.29,13.29,0,0,0,4.1-.63,13.49,13.49,0,0,0,2.32-1A8.07,8.07,0,0,0,21,19.31,5.21,5.21,0,0,0,21.88,16.81Z"/><path class="cls-1" d="M24.28,0a5.08,5.08,0,0,0,.51.17,8.33,8.33,0,0,1,6.08,5.27A8.16,8.16,0,0,1,31,10.72a1.29,1.29,0,0,1-2.19.51A1.35,1.35,0,0,1,28.6,10a5.79,5.79,0,0,0-5.69-7.5,9.88,9.88,0,0,0-1.22.11,1.21,1.21,0,0,1-1.36-1.1A1.26,1.26,0,0,1,21.38.13,1,1,0,0,0,21.75,0Z"/><path class="cls-1" d="M27.13,8.46a3.47,3.47,0,0,1-.21,1A1.07,1.07,0,0,1,24.84,9c0-.18.08-.35.1-.53a2,2,0,0,0-2.34-2,1,1,0,0,1-1.27-1.17A1,1,0,0,1,22,4.36a3.09,3.09,0,0,1,1.68-.1,4.28,4.28,0,0,1,2.23,1.15A4.22,4.22,0,0,1,27.13,8.46Z"/><path class="cls-1" d="M11.49,22.3a4.72,4.72,0,0,1-3.07-1A3.64,3.64,0,0,1,7,17.58a4.59,4.59,0,0,1,2.22-3.13,5.67,5.67,0,0,1,5-.61,4,4,0,0,1,2.25,1.88,3.89,3.89,0,0,1,.31,2.91,4.29,4.29,0,0,1-1.26,2,5.81,5.81,0,0,1-3.2,1.59A7.72,7.72,0,0,1,11.49,22.3ZM8.74,19a1.19,1.19,0,0,0,.47,1,1.92,1.92,0,0,0,2,0A1.61,1.61,0,0,0,12,18.18a1.11,1.11,0,0,0-.62-.73,1.71,1.71,0,0,0-1.72.11A1.68,1.68,0,0,0,8.74,19ZM13.45,17a.42.42,0,0,0-.48-.45.6.6,0,0,0-.6.61c0,.26.15.4.45.41A.58.58,0,0,0,13.45,17Z"/></g></g></svg>