<svg xmlns="http://www.w3.org/2000/svg" viewBox="0 0 31.31 25.23"><g id="图层_2" data-name="图层 2"><g id="图层_1-2" data-name="图层 1"><path d="M11,25.23l-1.8-.33a15.82,15.82,0,0,1-2.34-.62A14.16,14.16,0,0,1,4,23,8.85,8.85,0,0,1,.86,20,5.76,5.76,0,0,1,0,17.29,8.84,8.84,0,0,1,.92,13.2a14.9,14.9,0,0,1,1.25-2.1,19.9,19.9,0,0,1,2-2.41,21,21,0,0,1,2.5-2.31,18.61,18.61,0,0,1,2.24-1.5,8.63,8.63,0,0,1,4.4-1.39,2.33,2.33,0,0,1,1.92.89,2.8,2.8,0,0,1,.49,1.88,5.73,5.73,0,0,1-.28,1.53c-.12.34,0,.47.36.39.57-.12,1.08-.42,1.64-.57A7.52,7.52,0,0,1,22,7.39a2.39,2.39,0,0,1,1.42,1.83,4,4,0,0,1-.24,1.71c-.33.86-.24,1,.63,1.25a6.1,6.1,0,0,1,2.25,1.34,3.73,3.73,0,0,1,1.24,2.54A4.85,4.85,0,0,1,27,18.31,8.44,8.44,0,0,1,25,21.05a12.84,12.84,0,0,1-1.73,1.39,14.88,14.88,0,0,1-3.54,1.78,19.6,19.6,0,0,1-4.14,1l-.2.05Zm10.88-8.45a4.41,4.41,0,0,0,0-.54,4.79,4.79,0,0,0-1.92-3.14,8.75,8.75,0,0,0-3.26-1.54A12.82,12.82,0,0,0,13,11.17a9.86,9.86,0,0,0-1.44.1,17.16,17.16,0,0,0-2.71.63,17.37,17.37,0,0,0-2.06.94,8.08,8.08,0,0,0-2.08,1.69,5,5,0,0,0-1.18,2,4.49,4.49,0,0,0,1.94,5A9.7,9.7,0,0,0,8.85,23a11.76,11.76,0,0,0,3,.33,13.23,13.23,0,0,0,4.09-.63,13.49,13.49,0,0,0,2.32-1A7.94,7.94,0,0,0,21,19.27,5,5,0,0,0,21.84,16.78Z"/><path d="M24.24,0a4.36,4.36,0,0,0,.51.17,8.31,8.31,0,0,1,6.06,5.26,8.13,8.13,0,0,1,.12,5.27,1.28,1.28,0,0,1-2.18.51,1.35,1.35,0,0,1-.2-1.25,5.74,5.74,0,0,0-2.07-6.33,5.81,5.81,0,0,0-3.61-1.16,9.88,9.88,0,0,0-1.22.12,1.2,1.2,0,0,1-1.35-1.1A1.24,1.24,0,0,1,21.35.13,1,1,0,0,0,21.71,0Z"/><path d="M27.08,8.44a3.35,3.35,0,0,1-.21,1,1.12,1.12,0,0,1-1.31.76A1.1,1.1,0,0,1,24.8,9a4.51,4.51,0,0,0,.09-.53,1.94,1.94,0,0,0-2.33-2,1,1,0,0,1-1.27-1.17A1,1,0,0,1,22,4.35a3.09,3.09,0,0,1,1.68-.1A4.28,4.28,0,0,1,25.89,5.4,4.15,4.15,0,0,1,27.08,8.44Z"/><path d="M11.47,22.26a4.72,4.72,0,0,1-3.07-1A3.63,3.63,0,0,1,7,17.55,4.63,4.63,0,0,1,9.2,14.42a5.67,5.67,0,0,1,5-.6,3.9,3.9,0,0,1,2.55,4.78,4.24,4.24,0,0,1-1.25,2,5.84,5.84,0,0,1-3.2,1.59A7.72,7.72,0,0,1,11.47,22.26ZM8.73,18.91a1.2,1.2,0,0,0,.46,1,1.94,1.94,0,0,0,2,0,1.61,1.61,0,0,0,.74-1.76,1.11,1.11,0,0,0-.62-.73,1.71,1.71,0,0,0-1.72.11A1.66,1.66,0,0,0,8.73,18.91ZM13.42,17c0-.29-.16-.45-.47-.45a.61.61,0,0,0-.61.61c0,.26.16.39.45.41A.57.57,0,0,0,13.42,17Z"/></g></g></svg>