<svg xmlns="http://www.w3.org/2000/svg" viewBox="0 0 40.91 40.91"><defs><style>.cls-1{fill:#f7f7f7;}.cls-2{fill:#222;}</style></defs><g id="图层_2" data-name="图层 2"><g id="图层_1-2" data-name="图层 1"><path class="cls-1" d="M20.45,0a20.45,20.45,0,0,0-.51,40.89,4.26,4.26,0,0,0,.51,0,4.61,4.61,0,0,0,.53,0A20.45,20.45,0,0,0,20.45,0Z"/><path class="cls-2" d="M10.1,25.4a1.28,1.28,0,0,1-1.23-.79c-.12-.27-.1-.38-.09-.4s.07,0,.25,0c.91,0,.91-.73.91-1.11V21.42c0-1.7,0-3.4,0-5.11a1.52,1.52,0,0,1,.17-.66h.45a5.79,5.79,0,0,1,.83.06,1.67,1.67,0,0,1,.06.39c0,1.19,0,2.39,0,3.59v1.51c0,1,0,2,0,3a1.21,1.21,0,0,1-1,1.2A1.63,1.63,0,0,1,10.1,25.4Z"/><path class="cls-2" d="M33.28,17.77a.25.25,0,0,1-.17-.05S33,17.6,33,17.31s.07-1.07.77-1.07a.83.83,0,0,1,.75.76c0,.68-.83.75-1.08.75Z"/><path class="cls-2" d="M32.9,25.42a1.82,1.82,0,0,1-1.38-.54,1.64,1.64,0,0,1-.19-.53.07.07,0,0,1,0-.05,3.56,3.56,0,0,1,.56-.15,2.28,2.28,0,0,1,.44,0l.32,0,.18,0,.08-.18.05-.07,0-.19a2.5,2.5,0,0,0-.36-2.05,1.56,1.56,0,0,0-1.24-.5,4.51,4.51,0,0,0-1.32.25,1.13,1.13,0,0,0-.55.94c0,.83-.05,1.7,0,2.65a.55.55,0,0,1-.09.42.29.29,0,0,1-.23.07l-.33,0-.5,0c-.23,0-.36,0-.36-.43,0-.86,0-1.74,0-2.61,0-.48-.1-1.11-1-1.11h0a1,1,0,0,1-.89-.38,1,1,0,0,1,.05-.95,1.7,1.7,0,0,1,.77-.17h0a1.11,1.11,0,0,0,.83-.28,1.09,1.09,0,0,0,.24-.83.84.84,0,0,0-.91-.89h0c-.2,0-.27,0-.3-.05a1,1,0,0,1-.05-.55c0-.11,0-.23,0-.34,0-.46,0-.56.36-.59a1.26,1.26,0,0,0,.84-.35,1,1,0,0,1,.8-.38,1.1,1.1,0,0,1,.63.18,3.87,3.87,0,0,0,1.25.57l.47.16a1.63,1.63,0,0,1,1.26,1.79c0,.62,0,1.48,1.19,1.71a1.42,1.42,0,0,1,1.09,1.45c0,.87,0,1.74,0,2.59a1.49,1.49,0,0,1-1.07,1.39A1.78,1.78,0,0,1,32.9,25.42Zm-3-7.45-.1.2a1.17,1.17,0,0,0-.22.59,1.35,1.35,0,0,0,.29.64l.11.14.26.41L31,18.76l-.13-.19c-.19-.27-.34-.47-.5-.67l-.33-.42Z"/><path class="cls-2" d="M20.76,25.38h-.9a.75.75,0,0,1-.26,0s0-.09.09-.25c.36-.81.62-1.31,1.28-1.31a1.37,1.37,0,0,1,.34,0l.2,0c.17,0,.75-.07.75-.95,0-1.41,0-2.83,0-4.23,0-.81-.52-.93-.83-.93h-.17a.27.27,0,0,1-.19-.06s-.05-.13,0-.3a2.09,2.09,0,0,0,0-.56,1,1,0,0,1,0-.5.41.41,0,0,1,.26-.08c.49,0,1-.06,1.46-.06.68,0,1.36,0,2,.06a.87.87,0,0,1,.24.34,1.18,1.18,0,0,1,0,.5c0,.11,0,.22,0,.33s0,.28-.05.29l-.23,0a.9.9,0,0,0-1,1c0,1.32,0,2.65,0,4a1.12,1.12,0,0,0,.24.83,1.15,1.15,0,0,0,.82.26h0a1,1,0,0,1,.89.37,1,1,0,0,1,0,1,.84.84,0,0,1-.4.16l-1.18,0Z"/><path class="cls-2" d="M16.89,25.39l-1-.16L16,25c.18-.41.35-.81.54-1.21l.88,0h1.46c-.15,1.29-.79,1.57-1.68,1.57h-.27Z"/><path class="cls-2" d="M18.16,22.85a6.11,6.11,0,0,1-.86-.05.62.62,0,0,1-.44-.17.64.64,0,0,1,0-.49c.14-.4.3-.8.46-1.19l.3-.75-.12-.14-.1-.15-.25-.1c-.48-.18-1-.36-1-.5s.18-.68.47-1.28.51-1.05.78-1.58c.36-.74.7-.89,1.09-.89a2.69,2.69,0,0,1,.71.13c-.16.34-1.13,2.5-1.13,2.5H19.9a1,1,0,0,1,.3,0,1.78,1.78,0,0,1-.11.25c-.32.59-.6,1.19-.88,1.77l-.45.92.2.16.4.29a1.36,1.36,0,0,1,.32.25,1,1,0,0,1-.23.52,1.19,1.19,0,0,1-.52.45Z"/><path class="cls-2" d="M14.31,24.16a.48.48,0,0,1-.14-.06,15.4,15.4,0,0,1-.7-2.15c-.12-.69-.17-1.4-.23-2.15L13.19,19a2.31,2.31,0,0,1,0-.75s.17-.07.66-.07h.21l.29,0c.14,0,.34,0,.37.73,0,.5.08,1,.15,1.51a11.14,11.14,0,0,1,.14,2,3.7,3.7,0,0,1-.52,1.45Z"/><path class="cls-2" d="M7,24.06a2.57,2.57,0,0,1-.64-2,27.33,27.33,0,0,0,.32-3.34c0-.52.17-.55.42-.55h.64l.19,0a.83.83,0,0,1,.34.28c-.19,1.89-.37,3.39-.6,4.78a2.91,2.91,0,0,1-.38.86l-.12.2Z"/></g></g></svg>