<svg xmlns="http://www.w3.org/2000/svg" viewBox="0 0 40.91 40.91"><defs><style>.cls-1{fill:#f7f7f7;}.cls-2{fill:#222;}</style></defs><g id="图层_2" data-name="图层 2"><g id="图层_1-2" data-name="图层 1"><path class="cls-1" d="M20.45,0a20.45,20.45,0,0,0-.51,40.89,4.26,4.26,0,0,0,.51,0,4.61,4.61,0,0,0,.53,0A20.45,20.45,0,0,0,20.45,0Z"/><path class="cls-2" d="M17.84,30.92l-1.73-.32A16,16,0,0,1,13.85,30a13.66,13.66,0,0,1-2.72-1.25,8.56,8.56,0,0,1-3-2.87,5.45,5.45,0,0,1-.81-2.62,8.43,8.43,0,0,1,.87-3.93,14.31,14.31,0,0,1,1.21-2A20.22,20.22,0,0,1,11.28,15a19.52,19.52,0,0,1,2.41-2.22,16.52,16.52,0,0,1,2.15-1.45A8.32,8.32,0,0,1,20.08,10a2.26,2.26,0,0,1,1.85.86,2.71,2.71,0,0,1,.47,1.81,5.69,5.69,0,0,1-.27,1.47c-.12.33,0,.46.35.38.55-.12,1-.4,1.58-.55a7.2,7.2,0,0,1,4.45-.21,2.31,2.31,0,0,1,1.36,1.76,3.85,3.85,0,0,1-.23,1.65c-.32.82-.23.94.61,1.2a5.9,5.9,0,0,1,2.16,1.29,3.58,3.58,0,0,1,1.2,2.45,4.78,4.78,0,0,1-.36,2.17,8.49,8.49,0,0,1-1.88,2.64,13.43,13.43,0,0,1-1.66,1.33A14.56,14.56,0,0,1,26.3,30a20.16,20.16,0,0,1-4,.92l-.2.05Zm10.49-8.14c0-.2,0-.36,0-.52a4.66,4.66,0,0,0-1.86-3,8.31,8.31,0,0,0-3.13-1.49,12.3,12.3,0,0,0-3.52-.37,7,7,0,0,0-1.38.1,15.44,15.44,0,0,0-2.61.6,15.57,15.57,0,0,0-2,.91,7.31,7.31,0,0,0-2,1.63,4.66,4.66,0,0,0-1.14,1.92,4.32,4.32,0,0,0,1.87,4.83,9.37,9.37,0,0,0,3.29,1.42,11.28,11.28,0,0,0,2.83.32,12.68,12.68,0,0,0,4-.61,13.09,13.09,0,0,0,2.23-.92,7.81,7.81,0,0,0,2.68-2.4A4.93,4.93,0,0,0,28.33,22.78Z"/><path class="cls-2" d="M18.34,28.05a4.51,4.51,0,0,1-3-1A3.5,3.5,0,0,1,14,23.53a4.45,4.45,0,0,1,2.13-3A5.46,5.46,0,0,1,21,19.93a3.71,3.71,0,0,1,2.16,1.81,3.67,3.67,0,0,1,.29,2.79,3.94,3.94,0,0,1-1.2,1.94,5.37,5.37,0,0,1-3.88,1.58Zm-2.65-3.21a1.17,1.17,0,0,0,.45.93,1.82,1.82,0,0,0,1.92,0,1.52,1.52,0,0,0,.71-1.69,1,1,0,0,0-.58-.7,1.67,1.67,0,0,0-1.66.1A1.61,1.61,0,0,0,15.69,24.84ZM20.21,23c0-.28-.15-.43-.45-.43a.58.58,0,0,0-.58.59c0,.24.14.38.43.39A.55.55,0,0,0,20.21,23Z"/></g></g></svg>