<svg xmlns="http://www.w3.org/2000/svg" viewBox="0 0 40.91 40.91"><defs><style>.cls-1{fill:#f7f7f7;}.cls-2{fill:#222;}</style></defs><g id="图层_2" data-name="图层 2"><g id="图层_1-2" data-name="图层 1"><path class="cls-1" d="M20.45,0a20.45,20.45,0,0,0-.51,40.89,4.26,4.26,0,0,0,.51,0,4.61,4.61,0,0,0,.53,0A20.45,20.45,0,0,0,20.45,0Z"/><path class="cls-2" d="M17.21,24.17a6.75,6.75,0,0,1,1.89-5,8.32,8.32,0,0,1,2.32-1.77,9.44,9.44,0,0,1,1.69-.67,9.61,9.61,0,0,1,3.07-.36c.1,0,.12,0,.1-.13a7,7,0,0,0-1.21-2.83,8.57,8.57,0,0,0-2.15-2.14,10.25,10.25,0,0,0-5.33-1.76c-.14,0-.29.05-.43,0h-.07a1.23,1.23,0,0,1-.47,0h0a5.77,5.77,0,0,0-.72,0,9.61,9.61,0,0,0-3.36,1,8.73,8.73,0,0,0-2.88,2.16,10.83,10.83,0,0,0-1,1.47,6.89,6.89,0,0,0-.74,2.08c0,.22,0,.45-.07.68v.18a.23.23,0,0,1,0,.25v.46a.3.3,0,0,1,0,.29v.14c.06,0,0,.09,0,.13,0,.2.06.41.1.61a6.44,6.44,0,0,0,.9,2.28c.22.33.43.67.68,1a6.59,6.59,0,0,0,1.4,1.34.31.31,0,0,1,.15.43c-.12.34-.18.7-.3,1s-.24.87-.35,1.3a.82.82,0,0,0,0,.27.26.26,0,0,0,.3.28.88.88,0,0,0,.5-.17l2.33-1.58a.25.25,0,0,1,.27,0,10.52,10.52,0,0,0,3.47.53c.13,0,.14,0,.11-.15A5.41,5.41,0,0,1,17.21,24.17ZM20.57,13.8a1.13,1.13,0,1,1-1.09,1.13A1.11,1.11,0,0,1,20.57,13.8Zm-7.08,2.25a1.13,1.13,0,1,1,1.11-1.11A1.09,1.09,0,0,1,13.49,16.05Z"/><path class="cls-2" d="M33.77,23.08a5.36,5.36,0,0,0-.48-1.66,7,7,0,0,0-2.16-2.73,8.78,8.78,0,0,0-2-1.12,9.25,9.25,0,0,0-3.68-.64,8.84,8.84,0,0,0-4.54,1.4,7.13,7.13,0,0,0-2,1.89,6.18,6.18,0,0,0,.16,7.5,7.66,7.66,0,0,0,2.06,1.83,8.67,8.67,0,0,0,2.12.92,9.23,9.23,0,0,0,4.58.11,10.49,10.49,0,0,0,1.41-.45.19.19,0,0,1,.18,0l1.74,1.21a.33.33,0,0,0,.38,0,.56.56,0,0,0,.05-.44c-.13-.55-.3-1.09-.46-1.63a.22.22,0,0,1,.1-.29,3.61,3.61,0,0,0,.66-.57,7.82,7.82,0,0,0,1.55-2.38,4.22,4.22,0,0,0,.32-1.36V23.26A.19.19,0,0,1,33.77,23.08Zm-10.93-.82a1.13,1.13,0,0,1-1.12-1.13A1.12,1.12,0,0,1,22.84,20,1.1,1.1,0,0,1,24,21.13,1.12,1.12,0,0,1,22.84,22.26Zm5.78,0a1.13,1.13,0,1,1,1.15-1.11A1.11,1.11,0,0,1,28.62,22.25Z"/></g></g></svg>