<svg xmlns="http://www.w3.org/2000/svg" viewBox="0 0 32.28 27.25"><defs><style>.cls-1{fill:#fff;}</style></defs><g id="图层_2" data-name="图层 2"><g id="图层_1-2" data-name="图层 1"><path class="cls-1" d="M11.67,18.25A8.41,8.41,0,0,1,14,12a10.17,10.17,0,0,1,2.89-2.2A11.82,11.82,0,0,1,19,9a12,12,0,0,1,3.81-.45c.13,0,.15,0,.12-.16a8.71,8.71,0,0,0-1.5-3.51,10.35,10.35,0,0,0-2.67-2.65A12.33,12.33,0,0,0,16.33.93,13.08,13.08,0,0,0,12.15,0c-.18,0-.36.06-.53,0h-.09A1.43,1.43,0,0,1,11,0V0a6.77,6.77,0,0,0-.9,0A12.22,12.22,0,0,0,5.87,1.24,10.89,10.89,0,0,0,2.31,3.93,11.53,11.53,0,0,0,1,5.75,8.3,8.3,0,0,0,.09,8.33c0,.28,0,.57-.09.85V9.4a.26.26,0,0,1,0,.31v.58a.32.32,0,0,1,0,.35v.18c.08,0,0,.1.05.15,0,.26.07.52.12.77a8,8,0,0,0,1.12,2.83,14.48,14.48,0,0,0,.84,1.21,7.83,7.83,0,0,0,1.74,1.66.4.4,0,0,1,.19.54c-.15.42-.23.86-.38,1.29s-.29,1.08-.43,1.62a1.2,1.2,0,0,0,0,.33.33.33,0,0,0,.38.34,1.07,1.07,0,0,0,.62-.2l2.89-2a.35.35,0,0,1,.34-.05,12.9,12.9,0,0,0,4.31.66c.15,0,.17,0,.13-.18A7.63,7.63,0,0,1,11.67,18.25ZM15.85,5.36a1.41,1.41,0,1,1-1.36,1.4A1.39,1.39,0,0,1,15.85,5.36ZM7.06,8.16A1.4,1.4,0,1,1,8.43,6.78,1.36,1.36,0,0,1,7.06,8.16Z"/><path class="cls-1" d="M32.24,16.88a7.57,7.57,0,0,0-.59-2.06A8.65,8.65,0,0,0,29,11.44,10.44,10.44,0,0,0,26.5,10a11.3,11.3,0,0,0-4.56-.78A11,11,0,0,0,16.3,11a9.21,9.21,0,0,0-2.47,2.35,7.47,7.47,0,0,0-1.44,5.15A7.41,7.41,0,0,0,14,22.64a9.44,9.44,0,0,0,2.56,2.28,11.17,11.17,0,0,0,2.63,1.15,11.66,11.66,0,0,0,5.69.13,13.69,13.69,0,0,0,1.75-.56.22.22,0,0,1,.22,0L29,27.18a.41.41,0,0,0,.47,0,.67.67,0,0,0,.07-.55c-.16-.69-.38-1.35-.57-2a.28.28,0,0,1,.12-.36,4.65,4.65,0,0,0,.82-.71,9.56,9.56,0,0,0,1.92-3,5.5,5.5,0,0,0,.41-1.69V17.11C32.21,17,32.23,17,32.24,16.88Zm-13.58-1a1.4,1.4,0,1,1,1.4-1.4A1.38,1.38,0,0,1,18.66,15.86Zm7.18,0a1.4,1.4,0,1,1,1.43-1.38A1.38,1.38,0,0,1,25.84,15.86Z"/></g></g></svg>