<svg xmlns="http://www.w3.org/2000/svg" viewBox="0 0 25.46 25.39"><g id="图层_2" data-name="图层 2"><g id="图层_1-2" data-name="图层 1"><path d="M25.46,25.39H0c0-.24,0-.48,0-.72V0h25.4V24.67C25.43,24.91,25.45,25.15,25.46,25.39ZM21.51,15a3.69,3.69,0,0,0-.56,0,4.71,4.71,0,0,0-.64.19,2.38,2.38,0,0,0,.24.71,1.64,1.64,0,0,0,1.68.39,1.28,1.28,0,0,0,.91-1.2c0-.62,0-1.25,0-1.88a1.21,1.21,0,0,0-1-1.26c-.65-.11-.67-.49-.67-1a1.38,1.38,0,0,0-1.05-1.5A4.49,4.49,0,0,1,19.28,9a1,1,0,0,0-1.35.18.67.67,0,0,1-.43.17c-.62.05-.45.52-.47.88s-.05.7.47.68c.29,0,.43.12.45.42s-.14.55-.55.55c-.26,0-.67.08-.76.25a.82.82,0,0,0,.78,1.29c.44,0,.54.19.53.57,0,.62,0,1.25,0,1.87s.58.48,1,.53.6-.16.59-.58c0-.63,0-1.26,0-1.88,0-.17.12-.43.24-.47,1.39-.46,2,0,1.79,1.43A.62.62,0,0,0,21.51,15ZM14.3,16.41h0c.66,0,1.32,0,2,0a.65.65,0,0,0,.48-.25.84.84,0,0,0-.83-1.29c-.41,0-.55-.15-.54-.55,0-1,0-1.92,0-2.87,0-.34.07-.54.45-.51s.47-.14.46-.46a2.9,2.9,0,0,0,0-.66c-.06-.17-.24-.41-.38-.41a19.57,19.57,0,0,0-2.54,0c-.66,0-.34.64-.4,1s.06.55.45.52.42.13.42.43c0,1,0,2,0,3,0,.28-.08.5-.4.44-.87-.17-1.14.43-1.42,1.05-.16.38,0,.52.33.52ZM6.57,12.33h0c0-.94,0-1.87,0-2.81,0-.17-.06-.48-.13-.49A3.66,3.66,0,0,0,5.25,9C5.14,9,5,9.43,5,9.66c0,1.62,0,3.23,0,4.85,0,.3,0,.55-.42.56s-.48.3-.34.65a1.19,1.19,0,0,0,1.37.67,1.1,1.1,0,0,0,.93-1.08C6.58,14.32,6.57,13.32,6.57,12.33Zm5.29.75c.27-.55.56-1.16.88-1.76.21-.4.06-.54-.34-.54h-1l.76-1.7c-1-.36-1.42-.2-1.81.58-.19.38-.38.76-.56,1.14-.57,1.19-.57,1.2.61,1.61,0,0,0,0,.08.09-.16.41-.36.84-.5,1.28s0,.73.49.78a8.15,8.15,0,0,0,1.21,0,1.13,1.13,0,0,0,.75-1C12.42,13.42,12.13,13.3,11.86,13.08Zm-8.7,2.63h.19a4,4,0,0,0,.49-1c.18-1.15.31-2.32.42-3.49,0-.12-.21-.33-.37-.39a2,2,0,0,0-.6,0c-.45,0-.61.16-.63.61a15.7,15.7,0,0,1-.22,2.36C2.29,14.59,2.81,15.1,3.16,15.71Zm5-4.93c-.88,0-.92,0-.85.84a18.91,18.91,0,0,0,.21,2.14,8.88,8.88,0,0,0,.55,1.65c0,.1.4.16.41.15A4.6,4.6,0,0,0,9.12,14c0-.84-.19-1.68-.21-2.52C8.89,10.92,8.7,10.67,8.2,10.78Zm3.69,4h-2a.27.27,0,0,0-.2.09c-.2.44-.39.88-.58,1.33l1,.17a1.62,1.62,0,0,0,.22,0C11.37,16.41,11.83,16,11.89,14.82Zm10.25-3.89c.62,0,1-.31,1-.77a.83.83,0,0,0-.78-.78c-.47,0-.76.4-.77,1C21.57,10.83,21.77,11,22.14,10.93Z"/><path d="M20.1,11.42l-.31.44c-.09-.14-.25-.29-.25-.44s.13-.31.21-.47Z"/></g></g></svg>