<svg xmlns="http://www.w3.org/2000/svg" viewBox="0 0 25.5 25.43"><defs><style>.cls-1{fill:#fff;}</style></defs><g id="图层_2" data-name="图层 2"><g id="图层_1-2" data-name="图层 1"><path class="cls-1" d="M25.5,25.43H0c0-.23,0-.47,0-.71V0H25.47V24.72C25.47,25,25.49,25.2,25.5,25.43ZM21.55,15c-.17,0-.37,0-.57,0s-.42.13-.64.2a3,3,0,0,0,.24.7,1.64,1.64,0,0,0,1.69.4,1.3,1.3,0,0,0,.92-1.2c0-.63,0-1.26,0-1.88a1.2,1.2,0,0,0-1-1.26c-.66-.12-.67-.5-.67-1a1.38,1.38,0,0,0-1.05-1.5A4.93,4.93,0,0,1,19.31,9,1,1,0,0,0,18,9.22a.79.79,0,0,1-.44.17c-.62,0-.45.52-.47.88s0,.7.47.68c.3,0,.43.12.45.42s-.14.55-.55.55c-.26,0-.67.08-.76.25a.82.82,0,0,0,.79,1.29c.43,0,.53.19.53.57,0,.63,0,1.25,0,1.88s.58.48,1,.53.59-.16.58-.59c0-.62,0-1.25,0-1.88,0-.16.12-.43.25-.47,1.39-.46,2,0,1.78,1.44Zm-7.23,1.4h0c.67,0,1.33,0,2,0a.67.67,0,0,0,.49-.25.85.85,0,0,0-.83-1.3c-.42,0-.55-.14-.54-.55,0-1,0-1.91,0-2.87,0-.34.07-.54.45-.51s.47-.14.46-.47a2.81,2.81,0,0,0,0-.65c-.06-.17-.25-.41-.38-.42a21.69,21.69,0,0,0-2.55,0c-.66.06-.34.65-.4,1s.07.55.45.52.42.13.42.43c0,1,0,2,0,3,0,.28-.09.5-.41.44-.87-.17-1.14.42-1.42,1.05-.16.38,0,.52.34.52C13,16.43,13.68,16.44,14.32,16.44ZM6.58,12.35h0c0-.94,0-1.88,0-2.82,0-.17-.06-.48-.13-.49A4,4,0,0,0,5.26,9C5.15,9,5,9.45,5,9.68c0,1.62,0,3.24,0,4.86,0,.3,0,.55-.42.55s-.48.31-.34.65a1.19,1.19,0,0,0,1.37.68,1.11,1.11,0,0,0,.93-1.08C6.59,14.34,6.58,13.35,6.58,12.35Zm5.3.75c.28-.55.56-1.16.88-1.76.21-.4.07-.54-.34-.54h-1l.76-1.7c-1-.37-1.43-.21-1.82.58l-.55,1.14c-.57,1.19-.57,1.2.61,1.61,0,0,0,0,.08.09-.16.41-.36.84-.51,1.29s0,.72.5.77a8.15,8.15,0,0,0,1.21,0,1.16,1.16,0,0,0,.75-1C12.45,13.45,12.15,13.33,11.88,13.1ZM3.17,15.73h.19a4,4,0,0,0,.48-1c.19-1.16.32-2.33.43-3.5,0-.12-.22-.33-.37-.39a2.45,2.45,0,0,0-.61,0c-.45,0-.6.17-.62.62a18.65,18.65,0,0,1-.22,2.36C2.29,14.62,2.81,15.13,3.17,15.73ZM8.22,10.8c-.88,0-.93,0-.86.84s.08,1.44.21,2.14a9,9,0,0,0,.56,1.66c0,.09.4.16.4.14A4.68,4.68,0,0,0,9.14,14c0-.83-.19-1.68-.22-2.52C8.91,10.94,8.71,10.69,8.22,10.8Zm3.69,4H10c-.06,0-.17,0-.19.08-.2.44-.39.89-.58,1.34l1,.17h.22C11.39,16.44,11.85,16,11.91,14.84ZM22.17,11c.63,0,1-.31,1-.77a.83.83,0,0,0-.78-.78c-.47,0-.76.4-.78,1C21.61,10.85,21.81,11,22.17,11Z"/><path class="cls-1" d="M20.13,11.44l-.31.45c-.09-.15-.24-.3-.25-.45s.14-.31.22-.47Z"/></g></g></svg>