<svg xmlns="http://www.w3.org/2000/svg" viewBox="0 0 197.99 59.23"><g id="图层_2" data-name="图层 2"><g id="图层_1-2" data-name="图层 1"><path d="M46.3,10.61A31.75,31.75,0,0,0,35.45,4.75l-.75-.22A24.4,24.4,0,0,0,31,3.77l-.54,0c-.28,0-.56-.06-.84-.07h-.05l-.61,0c-.57,0-1.15,0-1.73,0l-.65,0c-.44,0-.88,0-1.31.1h0l-.46,0-.43.05-.23,0C23,4,22,4.23,20.88,4.5A29.06,29.06,0,0,0,4.56,16.14l-.18.27A27.85,27.85,0,0,0,15,56.1a20.77,20.77,0,0,0,3.11,1.22C23,58.84,24.36,59,27.56,59a31.07,31.07,0,0,0,10.58-1.78A28,28,0,0,0,50.94,46.9a9.41,9.41,0,0,0,.28-10.2l0-.06a16.49,16.49,0,0,0-3.58-3.5c-3-2.53-6.32-3.84-10.28-2.68-.52.15-1.06.25-1.58.37-4.33,1.06-8.49,1-12.42-1.51a15.57,15.57,0,0,1-6-6c-.17-.35-.34-.78-.82-.75s-.53.62-.67,1a3.16,3.16,0,0,0-.14.59c-.51,6.92,1.37,12.88,6.86,17.41a19.13,19.13,0,0,0,25.66-1.12c.45-.44.76-1.45,1.54-1.08s.63,1.29.73,2a3.89,3.89,0,0,1-.1,1.17c-.3,2-1.62,3.2-3,4.29a28.22,28.22,0,0,1-18.79,6.06c-8.32-.47-15.45-3.4-20.42-10.37C5,38.07,3.72,33.13,5.45,27.81,7.62,21.16,11.77,16.15,18.64,14a33,33,0,0,1,16.26-.85c10.29,2,17.23,7.67,19.91,18.06.07.28.18.91.82.91a22.11,22.11,0,0,0-.08-3A27.78,27.78,0,0,0,46.3,10.61Zm1.27,28.47a24.22,24.22,0,0,1-9,2.79,23.37,23.37,0,0,1-15.48-4.48,2.91,2.91,0,0,1-.62-1A35.64,35.64,0,0,0,27,39.26c.43.25,1.11.5,1.28-.08.41-1.48.9-.49,1.31-.1,2.3,2.12,5.12,2.35,8,2.22a.8.8,0,0,0,.82-.53c.13-.4-.14-.64-.41-.87-.47-.4-1.1-.66-1.21-1.39.5-.26.79.12,1.06.34,2.08,1.75,4.34,1.64,6.67.67.91-.38,1.77-.87,2.66-1.3.38-.19.91-.61,1.18-.12S48,38.87,47.57,39.08Z"/><path d="M99.9,38.38c-.26-.41-.51-.83-.74-1.24a10.46,10.46,0,0,0-9.08-5.34h-.52a44.73,44.73,0,0,0,3.29,7.37q1.25,4.06,10.65,3.29A16.57,16.57,0,0,1,99.9,38.38Z"/><path d="M77.34,22.56c.42-.62.94-1.46,1.57-2.5a6.4,6.4,0,0,1,4.23-1.57h4.07q2.82,0,4.54,3A5.07,5.07,0,0,0,95,24.6c1,.42,3.81.57,8.3.47-1.25-.42-2.56-1.83-3.91-4.23q-1.89-4.08-7.84-3.92h-6.1c-2.93,0-4.91.68-6,2a1.62,1.62,0,0,0,.32-.63,6.71,6.71,0,0,0,.62-1.25H72.64q-3.45,6.59-6.74,7.83Q76.08,25.71,77.34,22.56Z"/><path d="M78.81,31.8A10,10,0,0,0,70,37c-.27.47-.54.94-.84,1.41a16.57,16.57,0,0,1-3.6,4.08q9.41.78,10.65-3.29a44.73,44.73,0,0,0,3.29-7.37Z"/><polygon points="103.34 26.79 88.15 26.79 88.15 21.62 81.1 21.62 81.1 26.79 65.75 26.79 65.75 28.52 81.1 28.52 81.1 44.02 88.15 44.02 88.15 28.52 103.34 28.52 103.34 26.79"/><path d="M114.62,13a73.41,73.41,0,0,0,9.71.15q-4.69-.78-6.42-6.42h-8.46a25.67,25.67,0,0,0,2.2,4.7A3.4,3.4,0,0,0,114.62,13Z"/><path d="M107.89,16.77h33.68a1.57,1.57,0,0,0,1.56-1.57v-.48c-.06.32-.49.49-.94.48h-35c-.18,0-.67,0-.87-.45a5.35,5.35,0,0,0,.09.63C106.51,15.82,107.2,16.77,107.89,16.77Z"/><path d="M140.94,42.14V30.39c.21-2.5-1.78-3.7-5.95-3.6H120c-2.4-.1-4.08.63-5,2.19V26.79h-6.42V42.14h-2.66v1.41h37.6V42.14Zm-23,0h-3V30.08a4,4,0,0,1,3-1.56Zm8.3,0h-3.13V28.52h3.13Zm8.46-11.27V42.14h-3.29V28.52h.48Q135.15,28,134.67,30.87Z"/><path d="M134.67,13a3.42,3.42,0,0,0,3-1.57,25.12,25.12,0,0,0,2.19-4.7h-8.46q-1.73,5.64-6.42,6.42A73.34,73.34,0,0,0,134.67,13Z"/><path d="M118.23,24a18.46,18.46,0,0,0,2.5-2.82,8.59,8.59,0,0,1,4.39-1.09h1.72c1.57-.21,2.87.68,3.92,2.66a6.14,6.14,0,0,0,3.6,3c1.57.42,4.59.58,9.09.48a11.29,11.29,0,0,1-4.55-3.92,6.86,6.86,0,0,0-7.2-3.76h-3.14c-3.44-.1-5.9.63-7.36,2.19a22.15,22.15,0,0,1,1.57-2h-8.62q-4.86,5.64-8.3,6.89Q117.45,25.86,118.23,24Z"/><path d="M183.24,42.3c-.42-.84-1-1.93-1.57-3.29a14.84,14.84,0,0,0-.94-1.88c-.63-1.88-3.5-2.71-8.62-2.51q2.67,2.35,4.55,7.68Z"/><path d="M181.51,30.71c.32-1.05.57-2,.78-3h-6.42c-.52,2.93-1.77,5-3.76,6.11Q180.26,34.47,181.51,30.71Z"/><path d="M164.91,33.68q-2.82-.78-4.08-5.48h-6c.1.21.26.58.47,1.1a10.79,10.79,0,0,0,.31,1.25Q156.76,34.15,164.91,33.68Z"/><path d="M183.86,22.25V20.84h-1.41v-1.1q.63-4.69-7.2-4.23h-4.08V12.07h10.66a1.73,1.73,0,0,0,1.72-1.73H171.17V6.43h-5.95v3.91H161q-6-.31-6.73,4.08V9.25h-6.12v26c0,3.86-.73,6.74-2.19,8.61q8.63.8,8.31-8.3V22.25h11v3.6h-9.56v1.57h9.56V38.23c.1,1.77-.73,2.61-2.51,2.51a9.5,9.5,0,0,1-1.56-.17,4.47,4.47,0,0,0-.94-.15c1.46-3.24,3-5.38,4.7-6.43q-7.84-.3-9.4,3.46a32.59,32.59,0,0,1-1.73,3.29c-.41.73-.73,1.3-.94,1.72h6.27a1.65,1.65,0,0,0,.31-.63,6.9,6.9,0,0,0,.63-1.26A7.67,7.67,0,0,0,166.79,44q4.69.3,4.38-5.49V27.42h4.08q8.15.61,7.2-4.39v-.78Zm-18.64-6.74h-9.4v1.57h9.4v3.76h-11v-6c1-2.19,3.44-3.12,7.2-2.81h3.76Zm11.59,7.84c0,1.77-.78,2.61-2.35,2.5h-3.29v-3.6h5.64Zm0-2.51h-5.64V17.08h3.29c1.67-.1,2.45.73,2.35,2.51Z"/><path d="M71.67,49.65A5.4,5.4,0,0,0,67.9,51a4.68,4.68,0,0,0-1.49,3.6A4.47,4.47,0,0,0,67.74,58a4.91,4.91,0,0,0,3.53,1.26,6.74,6.74,0,0,0,2.83-.53l.08,0V57.23l-.2.11a5.18,5.18,0,0,1-2.52.59A3.44,3.44,0,0,1,69,57a3.29,3.29,0,0,1-1-2.47,3.47,3.47,0,0,1,1-2.62,3.67,3.67,0,0,1,2.63-1,5,5,0,0,1,2.3.52l.2.1V50.06l-.09,0A6.71,6.71,0,0,0,71.67,49.65Z"/><polygon points="85.45 53.72 80.65 53.72 80.65 49.8 79.09 49.8 79.09 59.08 80.65 59.08 80.65 55.02 85.45 55.02 85.45 59.08 87.01 59.08 87.01 49.8 85.45 49.8 85.45 53.72"/><path d="M96.78,49.81H95.22l-3.93,9.27H93l1-2.46h4l1,2.46h1.73Zm-2.29,5.52,1.42-3.56a.52.52,0,0,0,.06-.15.53.53,0,0,0,0,.15l1.43,3.56Z"/><path d="M115.09,53.87l-.16.3-.13-.31h0l-2.2-4.06h-1.79l3.31,5.9v3.38h1.56V55.67l3.4-5.87h-1.69Z"/><rect x="123.25" y="49.8" width="1.56" height="9.28"/><path d="M144.69,49.8h-2l-3.67,4-.06.07v-4h-1.56v9.28H139V54.87l.06.07L142.8,59l0,0H145l-4.64-4.82Z"/><path d="M153.27,49.81h-1.56l-3.93,9.27h1.73l1-2.46h4l1,2.46h1.73ZM151,55.33l1.42-3.56a.52.52,0,0,0,.06-.15.53.53,0,0,0,0,.15l1.43,3.56Z"/><path d="M168.38,56.13c0,.33,0,.6,0,.83a1.37,1.37,0,0,0-.15-.21l-4.9-6.89,0-.06h-1.82v9.28H163V52.61c0-.29,0-.53,0-.73l.1.14,5,7,0,0h1.73V49.8h-1.55Z"/><path d="M179.52,55.37h2.17v2.21a4.3,4.3,0,0,1-1.81.35,3.52,3.52,0,0,1-2.54-.9,3.81,3.81,0,0,1,.08-5.1,3.67,3.67,0,0,1,2.6-1,5.53,5.53,0,0,1,2.8.67l.2.11V50.16l-.08,0a7.25,7.25,0,0,0-2.8-.48A5.52,5.52,0,0,0,176.29,51a4.61,4.61,0,0,0-1.51,3.53,4.43,4.43,0,0,0,1.37,3.4,5.05,5.05,0,0,0,3.59,1.27,7.52,7.52,0,0,0,3.45-.78l.07,0V54.07h-3.74Z"/><path d="M67.78,12h5.93v.09h0v3.6h7.05v-3.6h7.36v3.6h7v-3.6h0V12h6.23A1.56,1.56,0,0,0,103,10.42V9.94c-.06.32-.49.49-1,.48H95.2v-4h-7v4H80.79v-4H73.74v4H67.09c-.19,0-.67,0-.87-.45,0,0,0,.45.08.62C66.41,11,67.1,12,67.78,12Z"/><path d="M198,5.21a5.28,5.28,0,0,1-10.56,0,5.28,5.28,0,0,1,10.56,0Zm-.78,0a4.5,4.5,0,1,0-9,0,4.5,4.5,0,1,0,9,0Zm-2.37,2.15.66,0V7.8a2.69,2.69,0,0,1-.73.07c-.64,0-.88-.15-1-.61l-.29-1.2c-.1-.46-.39-.66-.93-.66h-.39V7.33l.76.08V7.8h-2.54V7.41l.75-.08V2.88l-.75-.07V2.44h2.39c1.27,0,2,.54,2,1.35,0,.59-.39,1.17-1.37,1.39a1.31,1.31,0,0,1,1.15,1ZM192.15,5h.42a1,1,0,0,0,1.12-1.09c0-.66-.34-1.05-1.15-1.05h-.39Z"/></g></g></svg>