<svg xmlns="http://www.w3.org/2000/svg" viewBox="0 0 288.14 288.14"><defs><style>.cls-1,.cls-2{fill:none;stroke:#e0e0e0;stroke-width:1.7px;}.cls-1{stroke-linecap:round;stroke-linejoin:round;}.cls-2{stroke-miterlimit:10;}.cls-3{font-size:19.45px;fill:#e0e0e0;font-family:MADEKenfolg, MADE Kenfolg;}</style></defs><g id="图层_2" data-name="图层 2"><g id="图层_1-2" data-name="图层 1"><path class="cls-1" d="M190.11,86.32a74.82,74.82,0,0,0-51.84-15.87C115,72.3,93.62,85.64,81.14,105.31c-.15.24-.31.48-.45.73a72.32,72.32,0,0,0-10,39.49c1,28,16.07,52.65,39.7,63.88,2.84,1.23,6,2.66,8.59,3.52,12,4,18.14,4.33,26.48,4.47,29.67.51,59.5-22.31,65.55-44.1,3.53-12.73-3.46-20.71-13.76-26.72-9.35-5.45-16.87-9.61-28.09-7.35s-21.17,5.05-32.34,1.15c-8.77-3-17.2-9.41-21.73-17.63-.48-.89-1-2-2.21-1.86-1.62.16-1.32,1.66-1.63,2.7a6.4,6.4,0,0,0-.32,1.54c-.66,18.07,4.82,33.42,19.57,44.69,20.4,15.61,48.5,13.82,68-3.08,1.23-1.06,4.32-4.46,4.32-4.46s1.1,10.26-8.66,20c-13,13-30.63,18.62-48.6,18.12-21.33-.6-39-8.18-51.45-26.31a52.9,52.9,0,0,1-8.52-40.6A58.51,58.51,0,0,1,117.2,91.76c13-6.18,29.77-7.27,44-4a97.89,97.89,0,0,1,36.63,18.71c10.37,8.46,17.21,20.92,19.65,34a74.22,74.22,0,0,0-24.57-51.89C192,87.87,191.07,87.08,190.11,86.32Zm5.28,74.56A62.86,62.86,0,0,1,172.22,169c-13.53,2-29.74-1.88-40.75-10.15-2-1.5-3.21-3.79-3.09-4l16.72,6.58c-.83-1.82-.91-6-.91-6s3.06,5,4,5.61c6.77,4.57,14,4.88,21.57,4.26.92-.07,5.49-.82,5.49-.82-4.56-1.61-7.16-2.82-9-6a39.79,39.79,0,0,0,21.08,4.36,23,23,0,0,0,8.09-2.07C196.39,160.3,196.38,160.3,195.39,160.88Z"/><circle class="cls-2" cx="144.05" cy="144.04" r="113.73" transform="translate(-59.66 144.04) rotate(-45)"/><circle class="cls-2" cx="144.05" cy="144.04" r="73.44" transform="translate(-59.66 144.04) rotate(-45)"/><text class="cls-3" transform="translate(224.4 112.72) rotate(72.96)">T</text><text class="cls-3" transform="matrix(0.02, 1, -1, 0.02, 229.95, 137.29)">e</text><text class="cls-3" transform="translate(228.47 161.44) rotate(105.15)">a</text><text class="cls-3" transform="translate(220 184.53) rotate(119.81)"> </text><text class="cls-3" transform="matrix(-0.72, 0.7, -0.7, -0.72, 209.7, 200.21)">O</text><text class="cls-3" transform="translate(186.63 218.92) rotate(153.15)">f</text><text class="cls-3" transform="translate(165.95 227.26) rotate(166.99)"> </text><text class="cls-3" transform="translate(147.4 230.31) rotate(-177.25)">H</text><text class="cls-3" transform="translate(119.28 226.59) rotate(-159.73)">e</text><text class="cls-3" transform="translate(97.32 216.42) rotate(-143.54)">a</text><text class="cls-3" transform="matrix(-0.63, -0.78, 0.78, -0.63, 78.87, 200.22)">l</text><text class="cls-3" transform="translate(67.64 183.75) rotate(-114.28)">t</text><text class="cls-3" transform="translate(59.81 162.21) rotate(-98.05)">h</text><text class="cls-3" transform="translate(58.25 136.61) rotate(-81.54)">y</text><text class="cls-3" transform="matrix(0.39, -0.92, 0.92, 0.39, 63.96, 112.7)"> </text><text class="cls-3" transform="matrix(0.63, -0.78, 0.78, 0.63, 72.39, 95.96)">C</text><text class="cls-3" transform="translate(90.71 76.22) rotate(-33.18)">H</text><text class="cls-3" transform="matrix(0.97, -0.25, 0.25, 0.97, 115.41, 62.69)">A</text><text class="cls-3" transform="matrix(1, 0.04, -0.04, 1, 140.95, 57.89)">Y</text><text class="cls-3" transform="translate(167.8 61.35) rotate(18.14)">I</text><text class="cls-3" transform="matrix(0.83, 0.56, -0.56, 0.83, 186.42, 68.88)">K</text><text class="cls-3" transform="matrix(0.61, 0.79, -0.79, 0.61, 208.14, 86.26)">A</text></g></g></svg>