<svg xmlns="http://www.w3.org/2000/svg" viewBox="0 0 287.63 287.62"><defs><style>.cls-1,.cls-2{fill:none;stroke:#c5baae;stroke-width:1.7px;}.cls-1{stroke-linecap:round;stroke-linejoin:round;}.cls-2{stroke-miterlimit:10;}.cls-3{font-size:19.41px;fill:#c5baae;font-family:MADEKenfolg, MADE Kenfolg;}</style></defs><g id="图层_2" data-name="图层 2"><g id="图层_1-2" data-name="图层 1"><path class="cls-1" d="M189.77,86.18A74.7,74.7,0,0,0,138,70.34c-23.28,1.84-44.57,15.15-57,34.79-.14.24-.3.49-.45.73a72.27,72.27,0,0,0-9.92,39.43c1,27.9,16,52.55,39.62,63.76,2.84,1.23,6,2.65,8.58,3.52,12,4,18.11,4.32,26.43,4.46,29.62.51,59.4-22.27,65.43-44,3.53-12.71-3.45-20.67-13.73-26.67-9.33-5.44-16.83-9.6-28-7.34s-21.13,5-32.28,1.16c-8.75-3.05-17.17-9.4-21.69-17.61-.48-.89-1-2-2.21-1.86-1.61.16-1.32,1.66-1.63,2.71a6.23,6.23,0,0,0-.32,1.53c-.65,18,4.81,33.36,19.54,44.61,20.37,15.58,48.41,13.8,67.91-3.07,1.23-1.06,4.31-4.46,4.31-4.46s1.1,10.24-8.64,20c-13,13-30.58,18.59-48.51,18.08-21.29-.6-38.94-8.16-51.36-26.26a52.76,52.76,0,0,1-8.51-40.52A58.44,58.44,0,0,1,117,91.61c13-6.17,29.72-7.26,43.93-4a97.87,97.87,0,0,1,36.57,18.68c10.35,8.45,17.18,20.89,19.61,34a74,74,0,0,0-24.52-51.79C191.66,87.72,190.72,86.94,189.77,86.18ZM195,160.6a62.83,62.83,0,0,1-23.13,8.12c-13.51,2-29.69-1.87-40.68-10.13-2-1.49-3.2-3.79-3.08-4,0,0,16.69,6.58,16.69,6.58-.84-1.82-.91-6-.91-6s3.06,5,4,5.6c6.75,4.57,14,4.88,21.53,4.26.92-.07,5.48-.82,5.48-.82-4.55-1.61-7.15-2.82-9-6a39.69,39.69,0,0,0,21,4.35,22.83,22.83,0,0,0,8.07-2.06C196,160,196,160,195,160.6Z"/><circle class="cls-2" cx="143.78" cy="143.8" r="113.52" transform="translate(-59.57 143.79) rotate(-45)"/><circle class="cls-2" cx="143.78" cy="143.8" r="73.31" transform="translate(-50.47 83.64) rotate(-27.8)"/><text class="cls-3" transform="matrix(0.29, 0.96, -0.96, 0.29, 224, 112.5)">T</text><text class="cls-3" transform="translate(229.54 137.04) rotate(88.98)">e</text><text class="cls-3" transform="translate(228.06 161.14) rotate(105.15)">a</text><text class="cls-3" transform="matrix(-0.5, 0.87, -0.87, -0.5, 219.61, 184.19)"> </text><text class="cls-3" transform="translate(209.34 199.83) rotate(135.89)">O</text><text class="cls-3" transform="translate(186.33 218.5) rotate(153.13)">f</text><text class="cls-3" transform="matrix(-0.97, 0.23, -0.23, -0.97, 165.65, 226.85)"> </text><text class="cls-3" transform="matrix(-1, -0.05, 0.05, -1, 147.14, 229.89)">H</text><text class="cls-3" transform="translate(119.08 226.18) rotate(-159.75)">e</text><text class="cls-3" transform="matrix(-0.8, -0.59, 0.59, -0.8, 97.16, 216.04)">a</text><text class="cls-3" transform="matrix(-0.63, -0.78, 0.78, -0.63, 78.74, 199.86)">l</text><text class="cls-3" transform="translate(67.51 183.41) rotate(-114.28)">t</text><text class="cls-3" transform="matrix(-0.14, -0.99, 0.99, -0.14, 59.7, 161.91)">h</text><text class="cls-3" transform="translate(58.14 136.38) rotate(-81.56)">y</text><text class="cls-3" transform="translate(63.84 112.51) rotate(-66.91)"> </text><text class="cls-3" transform="translate(72.25 95.79) rotate(-50.84)">C</text><text class="cls-3" transform="translate(90.52 76.09) rotate(-33.21)">H</text><text class="cls-3" transform="matrix(0.97, -0.25, 0.25, 0.97, 115.18, 62.57)">A</text><text class="cls-3" transform="translate(140.68 57.78) rotate(2.33)">Y</text><text class="cls-3" transform="matrix(0.95, 0.31, -0.31, 0.95, 167.49, 61.22)">I</text><text class="cls-3" transform="translate(186.07 68.73) rotate(34.31)">K</text><text class="cls-3" transform="translate(207.74 86.07) rotate(52.61)">A</text></g></g></svg>