<svg xmlns="http://www.w3.org/2000/svg" viewBox="0 0 198.34 59.34"><defs><style>.cls-1{fill:#fff;}</style></defs><g id="图层_2" data-name="图层 2"><g id="图层_1-2" data-name="图层 1"><path class="cls-1" d="M46.38,10.63A31.77,31.77,0,0,0,35.51,4.76l-.75-.23a24.26,24.26,0,0,0-3.7-.75l-.53-.06-.85-.07h-.05l-.6,0c-.58,0-1.16,0-1.75,0l-.65,0c-.44,0-.87.05-1.31.09h0l-.45,0-.44,0-.23,0c-1.18.2-2.14.39-3.26.66A29.13,29.13,0,0,0,4.57,16.17l-.18.27A27.89,27.89,0,0,0,15,56.2a22,22,0,0,0,3.11,1.23C23,59,24.41,59.15,27.61,59.15a31.18,31.18,0,0,0,10.6-1.79A28,28,0,0,0,51,47a9.4,9.4,0,0,0,.28-10.21l0-.06a16.64,16.64,0,0,0-3.59-3.52c-3-2.52-6.33-3.84-10.29-2.68-.53.16-1.06.25-1.59.38-4.34,1.05-8.5,1-12.43-1.52a15.45,15.45,0,0,1-6-6c-.17-.35-.34-.78-.82-.75s-.53.62-.67,1a2.34,2.34,0,0,0-.14.58c-.51,6.93,1.37,12.9,6.87,17.45a19.19,19.19,0,0,0,25.71-1.13c.44-.44.76-1.45,1.54-1.08s.63,1.29.73,2a4,4,0,0,1-.1,1.18c-.31,2-1.63,3.2-3,4.3A28.36,28.36,0,0,1,28.64,53c-8.34-.48-15.48-3.41-20.46-10.4C5,38.14,3.73,33.19,5.46,27.86c2.17-6.66,6.34-11.69,13.21-13.8A33,33,0,0,1,35,13.21c10.31,2,17.26,7.68,19.94,18.09.08.28.19.91.83.91a22.06,22.06,0,0,0-.08-3A27.78,27.78,0,0,0,46.38,10.63Zm1.27,28.52a24.09,24.09,0,0,1-9,2.79,23.45,23.45,0,0,1-15.51-4.48,3.17,3.17,0,0,1-.63-1A38.15,38.15,0,0,0,27,39.33c.44.25,1.12.5,1.29-.08.41-1.48.9-.49,1.31-.1,2.31,2.13,5.13,2.36,8,2.23a.83.83,0,0,0,.82-.54c.13-.4-.14-.63-.41-.87-.47-.4-1.1-.66-1.22-1.39.5-.26.8.11,1.06.34,2.09,1.75,4.35,1.65,6.69.67.91-.38,1.77-.87,2.66-1.3.39-.2.91-.61,1.18-.12S48,38.94,47.65,39.15Z"/><path class="cls-1" d="M100.07,38.45c-.25-.41-.5-.83-.73-1.24a10.47,10.47,0,0,0-9.1-5.35h-.52A44.87,44.87,0,0,0,93,39.24q1.26,4.08,10.67,3.29A16.77,16.77,0,0,1,100.07,38.45Z"/><path class="cls-1" d="M77.48,22.6c.41-.63.94-1.46,1.57-2.51a6.45,6.45,0,0,1,4.23-1.57h4.08c1.89,0,3.4,1,4.55,3a5.08,5.08,0,0,0,3.3,3.14c1,.42,3.82.58,8.32.47-1.26-.41-2.57-1.83-3.93-4.23Q97.73,16.8,91.76,17H85.64q-4.4,0-6,2a1.62,1.62,0,0,0,.32-.63,6.71,6.71,0,0,0,.62-1.25H72.77Q69.32,23.7,66,25,76.22,25.74,77.48,22.6Z"/><path class="cls-1" d="M79,31.86A10.07,10.07,0,0,0,70.15,37c-.26.47-.54.95-.83,1.42a16.77,16.77,0,0,1-3.61,4.08q9.41.78,10.67-3.29a44.87,44.87,0,0,0,3.29-7.38Z"/><polygon class="cls-1" points="103.53 26.84 88.3 26.84 88.3 21.66 81.24 21.66 81.24 26.84 65.86 26.84 65.86 28.57 81.24 28.57 81.24 44.1 88.3 44.1 88.3 28.57 103.53 28.57 103.53 26.84"/><path class="cls-1" d="M114.83,13a74.63,74.63,0,0,0,9.72.16q-4.69-.79-6.43-6.44h-8.47a25.62,25.62,0,0,0,2.19,4.71A3.41,3.41,0,0,0,114.83,13Z"/><path class="cls-1" d="M108.08,16.8h33.74a1.58,1.58,0,0,0,1.57-1.57v-.49c-.06.32-.5.5-.95.49H107.38c-.18,0-.67,0-.87-.45,0,0,0,.45.08.62C106.7,15.85,107.39,16.8,108.08,16.8Z"/><path class="cls-1" d="M141.19,42.22V30.45q.31-3.76-6-3.61H120.16c-2.4-.1-4.08.63-5,2.19V26.84H108.7V42.22H106v1.41H143.7V42.22Zm-23.07,0h-3V30.14a4,4,0,0,1,3-1.57Zm8.32,0H123.3V28.57h3.14Zm8.47-11.3v11.3h-3.29V28.57h.47C134.28,28.25,135.23,29,134.91,30.92Z"/><path class="cls-1" d="M134.91,13a3.38,3.38,0,0,0,3-1.57,25.51,25.51,0,0,0,2.2-4.71h-8.47q-1.74,5.65-6.44,6.44A74.74,74.74,0,0,0,134.91,13Z"/><path class="cls-1" d="M118.43,24A17.9,17.9,0,0,0,121,21.19a8.54,8.54,0,0,1,4.39-1.1h1.73q2.34-.32,3.92,2.67a6.18,6.18,0,0,0,3.61,3q2.35.63,9.1.47a11.36,11.36,0,0,1-4.55-3.92,6.88,6.88,0,0,0-7.22-3.77h-3.14q-5.17-.15-7.37,2.2a19.43,19.43,0,0,1,1.57-2h-8.64c-3.24,3.76-6,6.07-8.31,6.9Q117.65,25.9,118.43,24Z"/><path class="cls-1" d="M183.56,42.37c-.42-.83-.94-1.93-1.57-3.29a14.84,14.84,0,0,0-.94-1.88c-.63-1.89-3.51-2.72-8.63-2.51,1.78,1.56,3.29,4.13,4.55,7.68Z"/><path class="cls-1" d="M181.83,30.76c.32-1,.58-2,.79-3h-6.44c-.52,2.93-1.78,5-3.76,6.12Q180.58,34.53,181.83,30.76Z"/><path class="cls-1" d="M165.2,33.74c-1.88-.52-3.25-2.35-4.08-5.49h-6c.1.21.26.58.47,1.1a9.65,9.65,0,0,0,.31,1.26Q157,34.21,165.2,33.74Z"/><path class="cls-1" d="M184.18,22.29V20.88h-1.4v-1.1q.61-4.71-7.22-4.24h-4.08V12.09h10.67a1.73,1.73,0,0,0,1.72-1.73H171.48V6.44h-6v3.92h-4.23q-6-.31-6.75,4.08V9.27h-6.12v26c0,3.87-.74,6.75-2.2,8.63q8.63.8,8.32-8.32V22.29h11V25.9h-9.57v1.57h9.57V38.3c.11,1.77-.73,2.61-2.51,2.51a10.52,10.52,0,0,1-1.57-.16,4,4,0,0,0-.94-.16c1.46-3.24,3-5.39,4.71-6.43-5.24-.21-8.37.94-9.42,3.45a32,32,0,0,1-1.72,3.3c-.42.73-.73,1.3-.94,1.72h6.27a1.62,1.62,0,0,0,.32-.63,7.61,7.61,0,0,0,.63-1.25,7.66,7.66,0,0,0,6.74,3.45c3.14.21,4.6-1.62,4.4-5.49V27.47h4.08q8.16.62,7.22-4.4v-.78Zm-18.67-6.75H156.1v1.57h9.41v3.77h-11v-6c1-2.19,3.45-3.13,7.21-2.82h3.77Zm11.62,7.85c0,1.78-.79,2.61-2.36,2.51h-3.29V22.29h5.65Zm0-2.51h-5.65V17.11h3.29c1.67-.1,2.46.73,2.36,2.51Z"/><path class="cls-1" d="M71.8,49.74A5.43,5.43,0,0,0,68,51.1a4.7,4.7,0,0,0-1.49,3.61,4.43,4.43,0,0,0,1.33,3.36,4.93,4.93,0,0,0,3.53,1.27,6.6,6.6,0,0,0,2.84-.54l.08,0V57.33l-.2.11a5.2,5.2,0,0,1-2.53.59,3.46,3.46,0,0,1-2.48-.91,3.29,3.29,0,0,1-.94-2.48,3.46,3.46,0,0,1,1-2.61,3.64,3.64,0,0,1,2.64-1,5,5,0,0,1,2.3.52l.2.1V50.15l-.09,0A6.71,6.71,0,0,0,71.8,49.74Z"/><polygon class="cls-1" points="85.6 53.81 80.79 53.81 80.79 49.89 79.23 49.89 79.23 59.19 80.79 59.19 80.79 55.12 85.6 55.12 85.6 59.19 87.16 59.19 87.16 49.89 85.6 49.89 85.6 53.81"/><path class="cls-1" d="M97,49.89H95.39l-3.93,9.3h1.72l1-2.47h4l1,2.47h1.73Zm-2.29,5.54,1.42-3.57a.59.59,0,0,0,.06-.14.58.58,0,0,0,0,.14l1.44,3.57Z"/><path class="cls-1" d="M115.29,54a2.89,2.89,0,0,0-.15.31c-.09-.2-.12-.28-.14-.31h0l-2.21-4.07H111l3.31,5.91v3.39h1.57V55.77l3.4-5.88H117.6Z"/><rect class="cls-1" x="123.47" y="49.89" width="1.56" height="9.3"/><path class="cls-1" d="M144.94,49.89h-2l-3.68,4-.07.08v-4h-1.56v9.3h1.56V55a.46.46,0,0,0,.07.07l3.77,4.1,0,0h2.14l-4.64-4.83Z"/><path class="cls-1" d="M153.54,49.89H152l-3.93,9.3h1.72l1-2.47h4l1,2.47h1.73Zm-2.29,5.54,1.42-3.57a.59.59,0,0,0,.06-.14.58.58,0,0,0,.05.14l1.44,3.57Z"/><path class="cls-1" d="M168.68,56.23c0,.33,0,.6,0,.83a1.91,1.91,0,0,1-.15-.21L163.64,50l0-.06h-1.83v9.3h1.55V52.71c0-.3,0-.54,0-.74l.1.14,5,7,0,.06h1.74v-9.3h-1.55Z"/><path class="cls-1" d="M179.84,55.46H182v2.23a4.35,4.35,0,0,1-1.82.34,3.54,3.54,0,0,1-2.55-.9,3.84,3.84,0,0,1,.09-5.11,3.64,3.64,0,0,1,2.6-1,5.67,5.67,0,0,1,2.81.67l.2.11V50.25l-.09,0a7.25,7.25,0,0,0-2.8-.48,5.5,5.5,0,0,0-3.86,1.38,4.62,4.62,0,0,0-1.51,3.54,4.43,4.43,0,0,0,1.37,3.4,5.08,5.08,0,0,0,3.6,1.28,7.37,7.37,0,0,0,3.45-.79l.08,0V54.16h-3.75Z"/><path class="cls-1" d="M67.9,12h5.94v.09h0V15.7h7.06V12.09H88.3V15.7h7.07V12.09h0V12h6.24a1.56,1.56,0,0,0,1.57-1.56V10c-.06.32-.49.49-.95.49H95.37v-4H88.3v4H80.93v-4H73.87v4H67.21c-.19,0-.67,0-.88-.46,0,0,0,.46.09.63C66.53,11.06,67.22,12,67.9,12Z"/><path class="cls-1" d="M198.34,5.22a5.29,5.29,0,0,1-10.57,0,5.29,5.29,0,0,1,10.57,0Zm-.78,0a4.51,4.51,0,1,0-9,0,4.51,4.51,0,1,0,9,0Zm-2.37,2.15.66,0v.39a2.73,2.73,0,0,1-.74.07c-.63,0-.88-.14-1-.61l-.3-1.2c-.09-.46-.39-.66-.93-.66h-.39V7.35l.76.07v.39H190.7V7.42l.76-.07V2.89l-.76-.07V2.45h2.4c1.28,0,2,.54,2,1.34,0,.59-.39,1.18-1.37,1.4a1.31,1.31,0,0,1,1.15,1ZM192.49,5h.42A1,1,0,0,0,194,3.89c0-.66-.35-1.05-1.16-1.05h-.39Z"/></g></g></svg>